[img]http://a.imageshack.us/img337/392/princeofpersiamovietami.jpg[/img]
[code]
Format                           : AVI
Format/Info                      : Audio Video Interleave
File size                        : 815 MiB
Duration                         : 1h 55mn
Overall bit rate                 : 984 Kbps

Video
ID                               : 0
Format                           : MPEG-4 Visual
Format settings, BVOP            : Yes
Format settings, QPel            : No
Format settings, GMC             : No warppoints
Format settings, Matrix          : Default (H.263)
Muxing mode                      : Packed bitstream
Codec ID                         : DX50
Codec ID/Hint                    : DivX 5
Duration                         : 1h 55mn
Bit rate                         : 780 Kbps
Width                            : 720 pixels
Height                           : 480 pixels
Display aspect ratio             : 3:2
Frame rate                       : 29.970 fps
Standard                         : NTSC
Color space                      : YUV
Chroma subsampling               : 4:2:0
Bit depth                        : 8 bits
Scan type                        : Progressive
Bits/(Pixel*Frame)               : 0.075
Stream size                      : 646 MiB (79%)
Writing library                  : DivX 6.8.5 (UTC 2009-08-20)

Audio
ID                               : 1
Format                           : MPEG Audio
Format version                   : Version 1
Format profile                   : Layer 3
Codec ID                         : 55
Codec ID/Hint                    : MP3
Duration                         : 1h 55mn
Bit rate mode                    : Constant
Bit rate                         : 192 Kbps
Channel(s)                       : 2 channels
Sampling rate                    : 44.1 KHz
Video delay                      : 26ms
Stream size                      : 159 MiB (20%)
Alignment                        : Split accross interleaves
Interleave, duration             : 33 ms (1.00 video frame)
Title                            : Audio Stream
Writing library                  : LAME3.92
[/code]
Screens:
[img]http://a.imageshack.us/img338/6522/rpsjk.png[/img]
[img]http://a.imageshack.us/img205/7917/sozx3.png[/img]
[img]http://a.imageshack.us/img202/6679/74tox.png[/img]
[img]http://a.imageshack.us/img148/7940/bg3tn.png[/img]
